<?xml version="1.0" standalone="no"?>
<!DOCTYPE svg PUBLIC "-//W3C//DTD SVG 20010904//EN"
 "http://www.w3.org/TR/2001/REC-SVG-20010904/DTD/svg10.dtd">
<svg version="1.0" xmlns="http://www.w3.org/2000/svg"
 width="700.000000pt" height="700.000000pt" viewBox="0 0 700.000000 700.000000"
 preserveAspectRatio="xMidYMid meet">
<metadata>
Created by potrace 1.11, written by Peter Selinger 2001-2013
</metadata>
<g transform="translate(0.000000,700.000000) scale(0.100000,-0.100000)"
fill="#000000" stroke="none">
<path d="M3289 6926 c-2 -2 -42 -6 -89 -10 -47 -3 -98 -8 -115 -11 -61 -9
-171 -25 -205 -31 -28 -4 -157 -33 -270 -59 -60 -14 -353 -113 -420 -142 -101
-44 -347 -168 -426 -214 -151 -89 -369 -243 -478 -339 -347 -302 -601 -616
-806 -995 -65 -122 -67 -125 -100 -198 -142 -313 -227 -613 -284 -997 -29
-198 -29 -628 0 -855 58 -456 206 -894 434 -1290 68 -118 140 -229 152 -233 4
-2 8 -8 8 -13 0 -8 91 -131 158 -214 105 -129 313 -339 442 -445 41 -34 86
-72 100 -84 55 -47 232 -168 355 -241 120 -73 377 -202 435 -220 14 -4 30 -11
35 -15 11 -9 330 -118 362 -124 12 -3 56 -14 99 -25 99 -26 296 -63 402 -76
117 -14 237 -20 422 -20 250 0 360 9 583 45 1126 186 2119 972 2572 2035 119
280 217 644 249 925 3 25 9 77 13 115 15 138 8 621 -11 722 -2 10 -7 43 -11
73 -67 506 -285 1051 -599 1495 -81 114 -73 104 -195 248 -248 291 -570 559
-891 741 -36 20 -72 41 -80 46 -8 6 -22 13 -30 16 -8 4 -62 30 -120 58 -58 28
-132 62 -165 75 -33 12 -69 27 -80 32 -32 14 -183 65 -275 92 -168 50 -394 96
-555 112 -38 4 -79 10 -90 12 -24 6 -520 14 -526 9z m211 -3427 l0 -2431 -117
6 c-65 3 -134 8 -153 11 -19 3 -66 10 -105 16 -55 8 -144 26 -225 44 -175 41
-450 156 -637 267 -246 147 -454 325 -640 548 -118 143 -191 256 -298 463
-120 231 -198 493 -240 802 -21 148 -10 527 19 683 27 143 53 246 95 371 32
96 41 118 92 228 16 34 29 64 29 66 0 3 21 42 47 88 340 610 891 1033 1568
1203 33 8 76 18 95 21 19 3 60 10 90 15 30 5 89 12 130 16 41 3 76 7 77 8 1 1
41 3 88 4 l85 3 0 -2432z"/>
</g>
</svg>
